<?xml version="1.0" standalone="no"?>
<!DOCTYPE svg PUBLIC "-//W3C//DTD SVG 20010904//EN"
 "http://www.w3.org/TR/2001/REC-SVG-20010904/DTD/svg10.dtd">
<svg version="1.0" xmlns="http://www.w3.org/2000/svg"
 width="260.000000pt" height="260.000000pt" viewBox="0 0 260.000000 260.000000"
 preserveAspectRatio="xMidYMid meet">
<metadata>
Created by potrace 1.11, written by Peter Selinger 2001-2013
</metadata>
<g transform="translate(0.000000,260.000000) scale(0.100000,-0.100000)"
fill="#000000" stroke="none">
<path d="M810 2201 c-309 -65 -584 -311 -684 -611 -33 -102 -37 -126 -41 -270
-4 -142 9 -220 57 -344 108 -280 349 -497 634 -571 195 -51 441 -29 615 54
107 51 115 59 114 116 0 42 -4 51 -26 64 -24 13 -29 13 -55 -6 -102 -72 -258
-119 -404 -121 -160 -1 -287 32 -416 109 -60 36 -182 149 -231 214 -47 61
-101 172 -124 255 -25 87 -33 252 -18 345 25 153 100 294 219 415 159 162 309
228 530 235 159 6 289 -26 414 -101 56 -33 63 -35 85 -23 20 12 25 23 26 61 1
26 -1 51 -4 56 -17 26 -220 109 -311 127 -81 16 -294 14 -380 -4z"/>
<path d="M1828 2173 c-17 -18 -18 -75 -18 -880 0 -820 1 -861 18 -876 15 -14
34 -16 108 -12 146 7 256 46 354 123 97 77 157 156 197 259 22 57 27 87 29
183 3 129 -12 203 -62 305 -36 74 -149 189 -224 229 -30 16 -57 30 -59 32 -2
2 13 23 33 47 19 24 48 70 63 103 23 50 28 72 28 144 0 70 -5 94 -26 140 -63
136 -175 206 -344 217 -70 5 -82 3 -97 -14z m207 -141 c133 -65 168 -245 70
-359 -39 -46 -85 -77 -127 -87 l-28 -6 0 240 0 240 28 -6 c15 -4 41 -13 57
-22z m30 -599 c72 -21 130 -57 190 -119 213 -219 156 -580 -116 -727 -61 -33
-79 -39 -156 -52 l-33 -5 0 465 0 465 33 -6 c17 -3 55 -12 82 -21z"/>
</g>
</svg>
