<svg version="1" xmlns="http://www.w3.org/2000/svg" width="346.667" height="346.667" viewBox="0 0 260.000000 260.000000"><path d="M77.8 66.6c-.2.1-2.3.5-4.8.8-19.8 2.4-44 18.3-56.5 37.2-15.3 23.1-17.8 50.6-6.5 72.9 9.2 18.2 25.3 28.5 44.9 28.8 17.2.3 31.3-3.9 47.6-14.1 4.8-3 14.3-12.6 16.7-16.9l1.8-3-14.1-9.7c-11.1-7.6-14.6-9.5-16.4-9-1.4.3-2.7 1.4-3 2.4-.8 2.5-6.6 7.5-11.4 10-6 3-14.6 3.4-19.8.9-17-8.2-13.1-43.7 6.2-57.5 6.7-4.7 12.4-6 20.4-4.6 5.7 1 7.1 1.6 10.4 5.1 2 2.2 3.7 4.9 3.7 6.1 0 1.2 1 2.5 2.3 3.1 2.1 1 4.3-.1 19-9.3 9.2-5.6 16.7-10.9 16.7-11.6 0-3.2-5.7-12.9-10.5-17.9-5.6-5.6-16.3-11.4-24-12.8-4-.7-22.2-1.5-22.7-.9zM154.9 68.2c-.1 1.6-.1 1.6-3.9 18.8-1.7 8-3.4 15.6-3.6 17-.2 1.4-1.7 8.6-3.3 16-1.6 7.4-4.8 22.3-7.1 33-2.2 10.7-5.2 24.4-6.5 30.5-3.5 15.7-3.9 19.3-2.7 20.8.8 1 8.9 1.2 36.9 1.1 19.7 0 37.8-.4 40.3-.8 12.9-2.2 23.8-6.9 31.2-13.5 4.8-4.4 10.3-13.5 11.4-19.1 1.2-6.3 1.1-17.2-.2-21.6-1.6-5.3-5.8-11.8-9.1-13.9l-2.5-1.7 5.5-4.9c3-2.7 6.9-7 8.6-9.6 8.1-12.2 9.3-29.1 2.9-40.9-2.4-4.4-9-9.8-13.7-11.2-5.7-1.8-84.1-1.7-84.2 0zm58 36.7c2 3.2-.9 11.6-4.3 12.8-3.4 1.1-22.4 1-22-.2.3-.9.5-1.9 1.9-9 .3-1.7.7-3.5.9-4 .6-1.7 22.5-1.3 23.5.4zm-7.1 48.5c.7.4 1.2 2.7 1.2 5.1 0 3.5-.6 5.2-2.9 7.7l-2.8 3.2-12.7.1-12.7.1.5-3.6c2.1-14.3 1.3-13.6 15.8-13.5 6.8.1 12.9.5 13.6.9z"/></svg>