<?xml version="1.0" standalone="no"?>
<!DOCTYPE svg PUBLIC "-//W3C//DTD SVG 20010904//EN"
 "http://www.w3.org/TR/2001/REC-SVG-20010904/DTD/svg10.dtd">
<svg version="1.0" xmlns="http://www.w3.org/2000/svg"
 width="1000.000000pt" height="1000.000000pt" viewBox="0 0 1000.000000 1000.000000"
 preserveAspectRatio="xMidYMid meet">
<metadata>
Created by potrace 1.11, written by Peter Selinger 2001-2013
</metadata>
<g transform="translate(0.000000,1000.000000) scale(0.100000,-0.100000)"
fill="#000000" stroke="none">
<path d="M1970 9969 c-245 -21 -462 -195 -653 -519 -105 -179 -194 -396 -258
-630 -7 -25 -14 -49 -15 -55 -6 -18 -23 -90 -28 -115 -38 -188 -56 -284 -61
-325 -4 -27 -8 -60 -10 -71 -2 -12 -7 -48 -10 -80 -4 -33 -9 -67 -11 -76 -1
-9 -6 -57 -9 -105 -4 -48 -9 -99 -11 -113 -24 -176 -24 -1397 0 -1780 8 -118
17 -247 21 -280 2 -19 7 -64 10 -100 4 -36 8 -76 10 -90 3 -25 18 -146 20
-165 1 -5 5 -30 9 -55 4 -25 9 -57 12 -72 44 -287 136 -637 234 -883 138 -347
405 -673 720 -877 94 -62 219 -126 295 -153 28 -9 59 -21 70 -25 37 -15 124
-34 210 -46 66 -10 227 -11 275 -2 25 5 61 11 80 14 72 11 298 99 320 124 3 3
23 17 45 30 108 64 274 218 389 362 175 218 349 528 483 858 31 74 56 136 58
138 2 2 3 -167 3 -375 -1 -208 0 -531 1 -718 2 -319 -1 -442 -13 -553 -3 -26
-8 -88 -11 -139 -3 -51 -7 -100 -9 -110 -2 -10 -7 -54 -10 -98 -4 -44 -9 -102
-11 -130 -3 -27 -7 -77 -10 -110 -3 -33 -7 -87 -10 -120 -37 -392 -42 -1237
-10 -1485 24 -182 60 -314 109 -400 35 -61 96 -122 153 -150 87 -44 232 -38
343 14 102 47 192 192 225 361 18 95 24 137 31 200 6 72 7 396 0 450 -2 17 -7
71 -11 120 -7 93 -10 122 -25 215 -16 94 -20 111 -57 235 -52 176 -62 215 -69
265 -3 25 -7 53 -10 62 -3 9 -5 92 -5 185 -1 154 3 230 17 323 3 19 7 46 9 60
24 164 114 389 206 514 96 129 237 244 383 311 108 50 227 83 366 102 113 16
513 7 605 -14 11 -2 36 -6 55 -8 108 -12 318 -60 445 -101 298 -97 475 -236
477 -375 1 -55 -49 -132 -147 -231 -106 -107 -225 -204 -550 -448 -406 -305
-504 -391 -601 -526 -10 -15 -29 -38 -40 -53 -42 -52 -153 -228 -203 -322 -54
-102 -143 -299 -135 -299 3 0 0 -9 -7 -21 -11 -21 -54 -163 -63 -209 -2 -14
-10 -50 -16 -80 -73 -367 15 -700 242 -916 97 -93 276 -194 408 -230 8 -2 40
-11 70 -19 178 -50 393 -66 515 -39 311 71 615 362 852 814 172 327 320 758
378 1095 2 17 7 41 10 55 3 14 8 45 11 70 3 25 7 56 9 69 27 164 26 562 -1
751 -11 74 -44 257 -53 287 -8 28 -5 36 26 72 80 94 223 179 403 241 52 18
100 33 105 35 6 1 17 4 25 7 8 3 62 20 120 38 246 76 391 157 420 233 19 54
-22 84 -154 111 -150 31 -273 9 -513 -90 -220 -91 -310 -113 -446 -109 -178 5
-420 107 -705 298 -207 138 -334 202 -525 265 l-144 48 39 49 c108 140 260
431 294 565 2 8 12 45 23 83 11 37 22 84 26 105 3 20 8 51 11 67 3 17 6 65 8
108 13 386 -199 637 -600 713 -86 16 -265 16 -334 0 -214 -48 -330 -98 -510
-219 -122 -81 -287 -233 -383 -351 -18 -21 -44 -53 -58 -70 -14 -17 -37 -48
-51 -69 l-26 -39 -15 49 c-27 85 -51 201 -62 298 -3 22 -8 58 -10 80 -6 46 -7
265 -1 310 3 17 7 55 10 87 4 31 17 116 30 190 45 249 28 347 -73 417 -71 48
-125 64 -227 67 -197 7 -318 -70 -396 -252 -29 -67 -73 -253 -83 -349 -42
-401 -277 -990 -583 -1460 -180 -276 -385 -494 -590 -629 -350 -231 -683 -147
-937 234 -44 66 -153 275 -160 308 -2 9 -16 49 -30 87 -43 113 -83 266 -90
340 -3 27 -7 65 -9 85 -3 19 -8 60 -11 90 -4 30 -8 66 -10 80 -2 14 -6 52 -10
85 -3 33 -7 71 -10 85 -2 14 -6 45 -9 70 -12 106 -27 227 -31 250 -2 14 -6 50
-9 80 -3 30 -8 64 -10 76 -2 11 -7 63 -11 115 -4 52 -8 110 -10 129 -2 19 -6
87 -10 150 -3 63 -8 140 -10 170 -24 340 -24 1024 0 1230 2 19 7 73 10 120 5
81 9 124 19 215 3 22 8 67 11 100 4 33 8 71 10 85 2 14 9 63 15 110 6 47 15
108 20 135 5 28 11 66 14 85 3 19 15 85 27 145 11 61 23 121 25 134 3 13 12
51 20 85 8 34 17 69 19 78 52 224 146 444 230 537 110 122 245 61 407 -184 99
-150 161 -289 218 -490 28 -99 53 -188 55 -197 2 -9 13 -51 25 -93 12 -42 23
-84 25 -93 15 -63 70 -263 96 -344 43 -134 68 -131 94 9 22 124 23 435 1 594
-3 19 -8 56 -11 82 -28 231 -114 467 -236 642 -92 133 -276 307 -414 392 -77
47 -188 88 -265 98 -30 4 -57 8 -60 9 -3 1 -39 -1 -80 -5z m4461 -4262 c73
-35 102 -84 101 -171 -1 -33 -3 -72 -6 -85 -44 -203 -294 -622 -478 -799 -51
-49 -175 -143 -243 -185 -88 -54 -408 -192 -490 -212 -5 -1 -17 -5 -25 -8 -31
-12 -188 -57 -200 -57 -14 0 -8 113 10 182 37 143 141 377 240 538 50 81 177
269 189 280 4 3 26 30 51 60 318 389 638 562 851 457z m1006 -2949 c42 -119
57 -240 57 -438 0 -119 -7 -244 -18 -320 -3 -14 -7 -47 -11 -75 -3 -27 -8 -57
-10 -65 -3 -8 -7 -33 -11 -55 -11 -72 -72 -298 -103 -383 -104 -279 -351 -645
-500 -741 -87 -56 -153 -74 -271 -74 -230 -1 -426 152 -505 393 -35 106 -17
264 45 414 140 335 540 776 1100 1214 74 58 151 118 170 133 19 15 37 28 40
28 4 1 11 -14 17 -31z"/>
</g>
</svg>
